/* XPM */
static char *_c4597aa07894c29d3f619b07002faf0ulajmrcirjCVMdmi[] = {
/* columns rows colors chars-per-pixel */
"10 10 2 1 ",
"  c #B4B4B4",
". c white",
/* pixels */
"          ",
" ........ ",
" ........ ",
" ........ ",
" ........ ",
" ........ ",
" ........ ",
" ........ ",
" ........ ",
"          "
};
